<svg xmlns="http://www.w3.org/2000/svg" viewBox="0 0 512 512" width="512" height="512">
  <rect width="512" height="512" rx="104" fill="#1A6278"/>
  <g transform="translate(93.34 -108.64) scale(3.4975)">
    <path d="M6.982421875 140.0V87.16796875H20.703125V140.0Z M48.97265625 140.9765625Q45.1640625 140.9765625 42.1611328125 139.9267578125Q39.158203125 138.876953125 37.05859375 136.8505859375Q34.958984375 134.82421875 33.8359375 131.845703125Q32.712890625 128.8671875 32.712890625 125.05859375Q32.712890625 120.37109375 34.3486328125 117.1728515625Q35.984375 113.974609375 38.81640625 111.9970703125Q41.6484375 110.01953125 45.45703125 109.1162109375Q49.265625 108.212890625 53.5625 108.1640625L64.939453125 107.96875V105.283203125Q64.939453125 102.40234375 64.4267578125 100.4736328125Q63.9140625 98.544921875 62.9375 97.32421875Q61.9609375 96.103515625 60.5205078125 95.5908203125Q59.080078125 95.078125 57.224609375 95.078125Q55.515625 95.078125 54.1728515625 95.419921875Q52.830078125 95.76171875 51.853515625 96.6162109375Q50.876953125 97.470703125 50.2666015625 98.9111328125Q49.65625 100.3515625 49.412109375 102.548828125L35.10546875 101.865234375Q35.69140625 98.3984375 37.25390625 95.5419921875Q38.81640625 92.685546875 41.5751953125 90.5859375Q44.333984375 88.486328125 48.3623046875 87.3388671875Q52.390625 86.19140625 57.810546875 86.19140625Q62.7421875 86.19140625 66.599609375 87.412109375Q70.45703125 88.6328125 73.142578125 91.0498046875Q75.828125 93.466796875 77.244140625 96.982421875Q78.66015625 100.498046875 78.66015625 105.13671875V124.375Q78.66015625 126.23046875 78.8310546875 127.6953125Q79.001953125 129.16015625 79.4658203125 130.1611328125Q79.9296875 131.162109375 80.7841796875 131.6748046875Q81.638671875 132.1875 83.005859375 132.1875Q84.568359375 132.1875 86.033203125 131.89453125V139.31640625Q84.8125 139.609375 83.8359375 139.853515625Q82.859375 140.09765625 81.8828125 140.244140625Q80.90625 140.390625 79.8076171875 140.48828125Q78.708984375 140.5859375 77.244140625 140.5859375Q72.068359375 140.5859375 69.6025390625 138.046875Q67.13671875 135.5078125 66.6484375 130.576171875H66.35546875Q63.62109375 135.5078125 59.3486328125 138.2421875Q55.076171875 140.9765625 48.97265625 140.9765625ZM64.939453125 115.537109375 57.908203125 115.634765625Q55.7109375 115.732421875 53.7333984375 116.0009765625Q51.755859375 116.26953125 50.2666015625 117.1240234375Q48.77734375 117.978515625 47.8984375 119.58984375Q47.01953125 121.201171875 47.01953125 123.984375Q47.01953125 127.744140625 48.7529296875 129.5751953125Q50.486328125 131.40625 53.3671875 131.40625Q56.00390625 131.40625 58.15234375 130.283203125Q60.30078125 129.16015625 61.7900390625 127.3291015625Q63.279296875 125.498046875 64.109375 123.10546875Q64.939453125 120.712890625 64.939453125 118.22265625Z" fill="#FBF7F1" fill-rule="nonzero"/>
    <path d="M6.982421875 77.646484375V67.5390625H20.703125V77.646484375Z" fill="#DC5D04"/>
  </g>
</svg>
