<svg xmlns="http://www.w3.org/2000/svg" viewBox="2.98 63.54 606.63 81.44" width="606.63" height="81.44" role="img" aria-label="ia comunica">
  <path d="M6.982421875 140.0V87.16796875H20.703125V140.0Z M49.67265625 140.9765625Q45.8640625 140.9765625 42.8611328125 139.9267578125Q39.858203125 138.876953125 37.75859375 136.8505859375Q35.658984375 134.82421875 34.5359375 131.845703125Q33.412890625 128.8671875 33.412890625 125.05859375Q33.412890625 120.37109375 35.0486328125 117.1728515625Q36.684375 113.974609375 39.51640625 111.9970703125Q42.3484375 110.01953125 46.15703125 109.1162109375Q49.965625 108.212890625 54.2625 108.1640625L65.639453125 107.96875V105.283203125Q65.639453125 102.40234375 65.1267578125 100.4736328125Q64.6140625 98.544921875 63.6375 97.32421875Q62.6609375 96.103515625 61.2205078125 95.5908203125Q59.780078125 95.078125 57.924609375 95.078125Q56.215625 95.078125 54.8728515625 95.419921875Q53.530078125 95.76171875 52.553515625 96.6162109375Q51.576953125 97.470703125 50.9666015625 98.9111328125Q50.35625 100.3515625 50.112109375 102.548828125L35.80546875 101.865234375Q36.39140625 98.3984375 37.95390625 95.5419921875Q39.51640625 92.685546875 42.2751953125 90.5859375Q45.033984375 88.486328125 49.0623046875 87.3388671875Q53.090625 86.19140625 58.510546875 86.19140625Q63.4421875 86.19140625 67.299609375 87.412109375Q71.15703125 88.6328125 73.842578125 91.0498046875Q76.528125 93.466796875 77.944140625 96.982421875Q79.36015625 100.498046875 79.36015625 105.13671875V124.375Q79.36015625 126.23046875 79.5310546875 127.6953125Q79.701953125 129.16015625 80.1658203125 130.1611328125Q80.6296875 131.162109375 81.4841796875 131.6748046875Q82.338671875 132.1875 83.705859375 132.1875Q85.268359375 132.1875 86.733203125 131.89453125V139.31640625Q85.5125 139.609375 84.5359375 139.853515625Q83.559375 140.09765625 82.5828125 140.244140625Q81.60625 140.390625 80.5076171875 140.48828125Q79.408984375 140.5859375 77.944140625 140.5859375Q72.768359375 140.5859375 70.3025390625 138.046875Q67.83671875 135.5078125 67.3484375 130.576171875H67.05546875Q64.32109375 135.5078125 60.0486328125 138.2421875Q55.776171875 140.9765625 49.67265625 140.9765625ZM65.639453125 115.537109375 58.608203125 115.634765625Q56.4109375 115.732421875 54.4333984375 116.0009765625Q52.455859375 116.26953125 50.9666015625 117.1240234375Q49.47734375 117.978515625 48.5984375 119.58984375Q47.71953125 121.201171875 47.71953125 123.984375Q47.71953125 127.744140625 49.4529296875 129.5751953125Q51.186328125 131.40625 54.0671875 131.40625Q56.70390625 131.40625 58.85234375 130.283203125Q61.00078125 129.16015625 62.4900390625 127.3291015625Q63.979296875 125.498046875 64.809375 123.10546875Q65.639453125 120.712890625 65.639453125 118.22265625Z M148.28554687500002 140.9765625Q141.98671875000002 140.9765625 137.27480468750002 139.0234375Q132.56289062500002 137.0703125 129.43789062500002 133.505859375Q126.31289062500001 129.94140625 124.75039062500001 124.9365234375Q123.18789062500001 119.931640625 123.18789062500001 113.876953125Q123.18789062500001 107.28515625 124.89687500000001 102.1337890625Q126.60585937500001 96.982421875 129.82851562500002 93.4423828125Q133.05117187500002 89.90234375 137.76308593750002 88.046875Q142.47500000000002 86.19140625 148.48085937500002 86.19140625Q153.60781250000002 86.19140625 157.58730468750002 87.55859375Q161.56679687500002 88.92578125 164.44765625000002 91.2939453125Q167.32851562500002 93.662109375 169.11074218750002 96.884765625Q170.89296875000002 100.107421875 171.57656250000002 103.818359375L157.75820312500002 104.501953125Q157.17226562500002 100.44921875 154.82851562500002 98.0322265625Q152.48476562500002 95.615234375 148.18789062500002 95.615234375Q142.67031250000002 95.615234375 140.13125000000002 100.15625Q137.59218750000002 104.697265625 137.59218750000002 113.33984375Q137.59218750000002 131.6015625 148.38320312500002 131.6015625Q152.28945312500002 131.6015625 154.92617187500002 129.1357421875Q157.56289062500002 126.669921875 158.19765625000002 121.787109375L171.96718750000002 122.421875Q171.47890625000002 126.083984375 169.74550781250002 129.4287109375Q168.01210937500002 132.7734375 165.05800781250002 135.3369140625Q162.10390625000002 137.900390625 157.90468750000002 139.4384765625Q153.70546875000002 140.9765625 148.28554687500002 140.9765625Z M234.774609375 113.53515625Q234.774609375 119.58984375 233.0900390625 124.619140625Q231.40546875 129.6484375 228.036328125 133.2861328125Q224.6671875 136.923828125 219.637890625 138.9501953125Q214.60859375 140.9765625 207.919140625 140.9765625Q201.473828125 140.9765625 196.5421875 138.974609375Q191.610546875 136.97265625 188.2658203125 133.359375Q184.92109375 129.74609375 183.212109375 124.6923828125Q181.503125 119.638671875 181.503125 113.53515625Q181.503125 107.626953125 183.1388671875 102.6220703125Q184.774609375 97.6171875 188.094921875 93.955078125Q191.415234375 90.29296875 196.44453125 88.2421875Q201.473828125 86.19140625 208.212109375 86.19140625Q215.341015625 86.19140625 220.3703125 88.2421875Q225.399609375 90.29296875 228.5978515625 93.9306640625Q231.79609375 97.568359375 233.2853515625 102.5732421875Q234.774609375 107.578125 234.774609375 113.53515625ZM220.419140625 113.53515625Q220.419140625 104.111328125 217.34296875 99.86328125Q214.266796875 95.615234375 208.407421875 95.615234375Q202.352734375 95.615234375 199.130078125 99.912109375Q195.907421875 104.208984375 195.907421875 113.53515625Q195.907421875 118.271484375 196.7619140625 121.689453125Q197.61640625 125.107421875 199.17890625 127.3046875Q200.74140625 129.501953125 202.938671875 130.5517578125Q205.1359375 131.6015625 207.77265625 131.6015625Q210.8 131.6015625 213.1681640625 130.5517578125Q215.536328125 129.501953125 217.14765625 127.3046875Q218.758984375 125.107421875 219.5890625 121.689453125Q220.419140625 118.271484375 220.419140625 113.53515625Z M279.466796875 140.0V110.361328125Q279.466796875 107.28515625 279.0517578125 104.7216796875Q278.63671875 102.158203125 277.6845703125 100.3271484375Q276.732421875 98.49609375 275.1943359375 97.470703125Q273.65625 96.4453125 271.458984375 96.4453125Q269.359375 96.4453125 267.650390625 97.5439453125Q265.94140625 98.642578125 264.6962890625 100.6689453125Q263.451171875 102.6953125 262.767578125 105.5029296875Q262.083984375 108.310546875 262.083984375 111.6796875V140.0H248.36328125V98.984375Q248.36328125 97.275390625 248.3388671875 95.46875Q248.314453125 93.662109375 248.2412109375 92.0263671875Q248.16796875 90.390625 248.119140625 89.0966796875Q248.0703125 87.802734375 247.97265625 87.16796875H261.05859375Q261.15625 87.75390625 261.25390625 89.0478515625Q261.3515625 90.341796875 261.44921875 91.904296875Q261.546875 93.466796875 261.6201171875 95.029296875Q261.693359375 96.591796875 261.693359375 97.666015625H261.888671875Q264.427734375 91.611328125 268.2119140625 88.876953125Q271.99609375 86.142578125 277.26953125 86.142578125Q283.32421875 86.142578125 287.0107421875 89.0966796875Q290.697265625 92.05078125 291.966796875 97.666015625H292.259765625Q293.67578125 94.39453125 295.3115234375 92.197265625Q296.947265625 90.0 298.9248046875 88.6572265625Q300.90234375 87.314453125 303.2216796875 86.728515625Q305.541015625 86.142578125 308.275390625 86.142578125Q312.62109375 86.142578125 315.6240234375 87.705078125Q318.626953125 89.267578125 320.5068359375 92.001953125Q322.38671875 94.736328125 323.2412109375 98.447265625Q324.095703125 102.158203125 324.095703125 106.455078125V140.0H310.47265625V110.361328125Q310.47265625 107.28515625 310.0576171875 104.7216796875Q309.642578125 102.158203125 308.6904296875 100.3271484375Q307.73828125 98.49609375 306.2001953125 97.470703125Q304.662109375 96.4453125 302.46484375 96.4453125Q300.4140625 96.4453125 298.7294921875 97.4951171875Q297.044921875 98.544921875 295.7998046875 100.4736328125Q294.5546875 102.40234375 293.87109375 105.087890625Q293.1875 107.7734375 293.08984375 111.044921875V140.0Z M352.91875 87.16796875V116.806640625Q352.91875 119.8828125 353.40703125 122.4462890625Q353.8953125 125.009765625 355.018359375 126.8408203125Q356.14140625 128.671875 357.9236328125 129.697265625Q359.705859375 130.72265625 362.29375 130.72265625Q364.783984375 130.72265625 366.8103515625 129.6240234375Q368.83671875 128.525390625 370.3015625 126.4990234375Q371.76640625 124.47265625 372.5720703125 121.6650390625Q373.377734375 118.857421875 373.377734375 115.48828125V87.16796875H387.0984375V128.18359375Q387.0984375 129.84375 387.1228515625 131.6748046875Q387.147265625 133.505859375 387.2205078125 135.1416015625Q387.29375 136.77734375 387.3669921875 138.0712890625Q387.440234375 139.365234375 387.4890625 140.0H374.403125Q374.354296875 139.4140625 374.2322265625 138.1201171875Q374.11015625 136.826171875 374.0369140625 135.263671875Q373.963671875 133.701171875 373.8904296875 132.138671875Q373.8171875 130.576171875 373.8171875 129.501953125H373.573046875Q370.838671875 135.5078125 366.6150390625 138.2421875Q362.39140625 140.9765625 356.580859375 140.9765625Q351.84453125 140.9765625 348.52421875 139.4140625Q345.20390625 137.8515625 343.1287109375 135.1416015625Q341.053515625 132.431640625 340.12578125 128.720703125Q339.198046875 125.009765625 339.198046875 120.712890625V87.16796875Z M437.991796875 140.0V110.361328125Q437.991796875 107.28515625 437.503515625 104.7216796875Q437.015234375 102.158203125 435.8921875 100.3271484375Q434.769140625 98.49609375 432.9625 97.470703125Q431.155859375 96.4453125 428.56796875 96.4453125Q426.077734375 96.4453125 424.0513671875 97.5439453125Q422.025 98.642578125 420.56015625 100.6689453125Q419.0953125 102.6953125 418.2896484375 105.5029296875Q417.483984375 108.310546875 417.483984375 111.6796875V140.0H403.76328125V98.984375Q403.76328125 97.275390625 403.7388671875 95.46875Q403.714453125 93.662109375 403.6412109375 92.0263671875Q403.56796875 90.390625 403.519140625 89.0966796875Q403.4703125 87.802734375 403.37265625 87.16796875H416.45859375Q416.55625 87.75390625 416.65390625 89.0478515625Q416.7515625 90.341796875 416.84921875 91.904296875Q416.946875 93.466796875 417.0201171875 95.029296875Q417.093359375 96.591796875 417.093359375 97.666015625H417.288671875Q420.071875 91.611328125 424.27109375 88.876953125Q428.4703125 86.142578125 434.280859375 86.142578125Q439.066015625 86.142578125 442.3619140625 87.705078125Q445.6578125 89.267578125 447.7330078125 92.001953125Q449.808203125 94.736328125 450.7359375 98.447265625Q451.663671875 102.158203125 451.663671875 106.455078125V140.0Z M467.54726562499997 77.646484375V67.5390625H481.26796874999997V77.646484375ZM467.54726562499997 140.0V87.16796875H481.26796874999997V140.0Z M520.051953125 140.9765625Q513.753125 140.9765625 509.04121093749995 139.0234375Q504.32929687499995 137.0703125 501.20429687499995 133.505859375Q498.07929687499995 129.94140625 496.51679687499995 124.9365234375Q494.95429687499995 119.931640625 494.95429687499995 113.876953125Q494.95429687499995 107.28515625 496.66328124999995 102.1337890625Q498.37226562499995 96.982421875 501.59492187499995 93.4423828125Q504.81757812499995 89.90234375 509.52949218749995 88.046875Q514.24140625 86.19140625 520.247265625 86.19140625Q525.37421875 86.19140625 529.3537109375 87.55859375Q533.333203125 88.92578125 536.2140625 91.2939453125Q539.094921875 93.662109375 540.8771484375 96.884765625Q542.659375 100.107421875 543.34296875 103.818359375L529.524609375 104.501953125Q528.938671875 100.44921875 526.594921875 98.0322265625Q524.251171875 95.615234375 519.954296875 95.615234375Q514.43671875 95.615234375 511.89765624999995 100.15625Q509.35859374999995 104.697265625 509.35859374999995 113.33984375Q509.35859374999995 131.6015625 520.149609375 131.6015625Q524.055859375 131.6015625 526.692578125 129.1357421875Q529.329296875 126.669921875 529.9640625 121.787109375L543.73359375 122.421875Q543.2453125 126.083984375 541.5119140625 129.4287109375Q539.778515625 132.7734375 536.8244140625 135.3369140625Q533.8703125 137.900390625 529.67109375 139.4384765625Q525.471875 140.9765625 520.051953125 140.9765625Z M568.552734375 140.9765625Q564.744140625 140.9765625 561.7412109375 139.9267578125Q558.73828125 138.876953125 556.638671875 136.8505859375Q554.5390625 134.82421875 553.416015625 131.845703125Q552.29296875 128.8671875 552.29296875 125.05859375Q552.29296875 120.37109375 553.9287109375 117.1728515625Q555.564453125 113.974609375 558.396484375 111.9970703125Q561.228515625 110.01953125 565.037109375 109.1162109375Q568.845703125 108.212890625 573.142578125 108.1640625L584.51953125 107.96875V105.283203125Q584.51953125 102.40234375 584.0068359375 100.4736328125Q583.494140625 98.544921875 582.517578125 97.32421875Q581.541015625 96.103515625 580.1005859375 95.5908203125Q578.66015625 95.078125 576.8046875 95.078125Q575.095703125 95.078125 573.7529296875 95.419921875Q572.41015625 95.76171875 571.43359375 96.6162109375Q570.45703125 97.470703125 569.8466796875 98.9111328125Q569.236328125 100.3515625 568.9921875 102.548828125L554.685546875 101.865234375Q555.271484375 98.3984375 556.833984375 95.5419921875Q558.396484375 92.685546875 561.1552734375 90.5859375Q563.9140625 88.486328125 567.9423828125 87.3388671875Q571.970703125 86.19140625 577.390625 86.19140625Q582.322265625 86.19140625 586.1796875 87.412109375Q590.037109375 88.6328125 592.72265625 91.0498046875Q595.408203125 93.466796875 596.82421875 96.982421875Q598.240234375 100.498046875 598.240234375 105.13671875V124.375Q598.240234375 126.23046875 598.4111328125 127.6953125Q598.58203125 129.16015625 599.0458984375 130.1611328125Q599.509765625 131.162109375 600.3642578125 131.6748046875Q601.21875 132.1875 602.5859375 132.1875Q604.1484375 132.1875 605.61328125 131.89453125V139.31640625Q604.392578125 139.609375 603.416015625 139.853515625Q602.439453125 140.09765625 601.462890625 140.244140625Q600.486328125 140.390625 599.3876953125 140.48828125Q598.2890625 140.5859375 596.82421875 140.5859375Q591.6484375 140.5859375 589.1826171875 138.046875Q586.716796875 135.5078125 586.228515625 130.576171875H585.935546875Q583.201171875 135.5078125 578.9287109375 138.2421875Q574.65625 140.9765625 568.552734375 140.9765625ZM584.51953125 115.537109375 577.48828125 115.634765625Q575.291015625 115.732421875 573.3134765625 116.0009765625Q571.3359375 116.26953125 569.8466796875 117.1240234375Q568.357421875 117.978515625 567.478515625 119.58984375Q566.599609375 121.201171875 566.599609375 123.984375Q566.599609375 127.744140625 568.3330078125 129.5751953125Q570.06640625 131.40625 572.947265625 131.40625Q575.583984375 131.40625 577.732421875 130.283203125Q579.880859375 129.16015625 581.3701171875 127.3291015625Q582.859375 125.498046875 583.689453125 123.10546875Q584.51953125 120.712890625 584.51953125 118.22265625Z" fill="#10262E" fill-rule="nonzero"/>
  <path d="M6.982421875 77.646484375V67.5390625H20.703125V77.646484375Z" fill="#DC5D04"/>
</svg>
